PathFileType	4	(X/Y/Z)	61_1_34_p1_0-231_filt_butterworth.trc
DataRate	CameraRate	NumFrames	NumMarkers	Units	OrigDataRate	OrigDataStartFrame	OrigNumFrames
50.0	50.0	5	27	m	50.0	115	231
Frame#	Time	RHip			RKnee			RAnkle			RBigToe			RSmallToe			RHeel			LHip			LKnee			LAnkle			LBigToe			LSmallToe			LHeel			Neck			Head			Nose			RShoulder			RElbow			RWrist			RThumb			RIndex			RPinky			LShoulder			LElbow			LWrist			LThumb			LIndex			LPinky			
		X1	Y1	Z1	X2	Y2	Z2	X3	Y3	Z3	X4	Y4	Z4	X5	Y5	Z5	X6	Y6	Z6	X7	Y7	Z7	X8	Y8	Z8	X9	Y9	Z9	X10	Y10	Z10	X11	Y11	Z11	X12	Y12	Z12	X13	Y13	Z13	X14	Y14	Z14	X15	Y15	Z15	X16	Y16	Z16	X17	Y17	Z17	X18	Y18	Z18	X19	Y19	Z19	X20	Y20	Z20	X21	Y21	Z21	X22	Y22	Z22	X23	Y23	Z23	X24	Y24	Z24	X25	Y25	Z25	X26	Y26	Z26	X27	Y27	Z27	
115	2.3	0.324049911700915	0.640665229783213	0.9500691310690472	0.3152449986989223	0.7815243484118136	1.3739503027248983	0.2969753179276055	0.9549506749602091	1.7749499130300412	0.30135319343035827	0.7297262767293187	1.8329119361838204	0.35984468483184084	0.7716584079273444	1.8154051730085157	0.27708858650089835	0.9956973940712219	1.8159325157658857	0.10576248105753992	0.6261177280111158	0.9602970536830064	0.10152385806179512	0.7611790221339444	1.3702994726195425	0.12710750571043108	0.8817084165398019	1.7641133948052015	0.15144378075888124	0.7166307345848593	1.8365978398582397	0.07817574085820816	0.7528780202476102	1.8245230449776626	0.14289505018373758	0.9711010968458271	1.8217088605812406	0.22073233354701058	0.4966488289476949	0.424219184319051	0.21587585775803658	0.4019012440443703	0.18795315537341348	0.17588794779374334	0.35173916975704217	0.3430695712960073	0.388784442524894	0.5753355337782377	0.5000851247216628	0.42140446941088616	0.6242526979010931	0.7510635486052166	0.4298573931385279	0.5598826910715152	0.9958971832525877	0.3824911529767156	0.5893882692516692	1.114092759087589	0.406752021424591	0.5718056011242661	1.1175951900437882	0.43075150400050305	0.5859623989430931	1.1177578228189535	0.07441648362941569	0.5409292284454883	0.48360042439096573	0.003235586928258638	0.5268998285840465	0.7292111763137377	0.03969065194710182	0.434906659448639	0.5888559906771209	0.03603232097466618	0.42138285583423774	0.5092667896097528	0.029861253533032484	0.39573483932497533	0.5013763570341192	0.014577299337381404	0.34055198782303864	0.5263011854859208
116	2.32	0.3238554907340343	0.6406989790525468	0.9499912636234722	0.31563582029970644	0.783108310408166	1.3727757855503786	0.2966273682701011	0.955950364058233	1.7726486844838538	0.3013765798969937	0.7296960173184324	1.8295952482037419	0.35990502736636265	0.7767151339481818	1.8170721858578425	0.27720403123030113	0.9954832907547718	1.8121948953906732	0.1058597926099215	0.6262964321089731	0.9604819146858063	0.1017563645228625	0.7608916801195718	1.3689981810373015	0.12354212121324981	0.8870482914567145	1.7638986762217	0.1507790752520048	0.7109094203728121	1.8346518000307948	0.07817931671562937	0.7528004118092789	1.8243130659518199	0.14238584654881908	0.9713529109298725	1.8198546252214487	0.22073005533715306	0.49728961931288335	0.42527497965619615	0.21717848004752224	0.4027500317828228	0.18818441774671885	0.17933325944302997	0.35020587409716275	0.3444396694294573	0.3887819645117293	0.5752237479221289	0.49999473413055684	0.41973298913894386	0.6284391944797796	0.7514686799358579	0.42914182944513896	0.5615134183123514	0.9983152909319846	0.38101674621100945	0.5832885940062468	1.1132787532284711	0.40461087064040013	0.5706959669705355	1.1185020314320857	0.4301683440745469	0.5865517999741999	1.1176498488176825	0.0736778967142936	0.541171939352428	0.48572465267605613	0.010090980804065867	0.518646883682232	0.7349522117548501	0.043371520583518286	0.4408910177796383	0.5921158833042265	0.03666274802485561	0.4202124569191573	0.5116458739841198	0.030195313721656084	0.39282242242691834	0.504218203269382	0.014651565078184227	0.34108103221243014	0.5275039428540602
117	2.34	0.3237569268019646	0.6403122779479169	0.9499129708473746	0.31534947523200285	0.7830054692031647	1.371296854182087	0.29678481902865456	0.9558808387846975	1.7733157344320145	0.30149835816300974	0.7295819967112736	1.8281647625193505	0.36069585347758515	0.7792090933906307	1.818812042221503	0.2774675265256314	0.9948904688828796	1.810877925955808	0.10591404805188914	0.6262350873286506	0.960225534959396	0.10206883955696934	0.7604908821333252	1.367223433445947	0.11951667733734753	0.8925064568935956	1.7637309325788348	0.1503008683148129	0.7069265822415057	1.8334733908582765	0.07820721958115455	0.7526667325602401	1.8240772995949392	0.14197331444082317	0.9703329345305387	1.8185748115325866	0.22072556509908356	0.49799312685522135	0.4267621998806168	0.2175072038500086	0.40308118270030774	0.18841640014346994	0.18312230953552647	0.3503669332270196	0.34511930852454026	0.3887876975750407	0.5753773706895892	0.4999055647559518	0.41812701846161976	0.6298041322216621	0.7526452704104571	0.4288951580467227	0.5614357976831789	0.9993215564781808	0.37958178249257357	0.5752076240964367	1.1124809810480092	0.40335785773409616	0.5697535278771667	1.1196137692043038	0.42868217941317727	0.5903288926373653	1.118186838317496	0.0736475122956545	0.5410646427043522	0.4853828575611257	0.01499283924498899	0.5131376333078435	0.7396253266345677	0.045475218105952654	0.4454641411081807	0.5931821391207023	0.03644640447064958	0.4174932013422096	0.5124549539102043	0.029961865818876623	0.39234000438970684	0.5059675370701835	0.01461450548115878	0.34186682500793	0.5289979358832946
118	2.36	0.3237390472847139	0.6401685719174518	0.9501820753017423	0.31533468607981974	0.7830145056844025	1.3714812678067523	0.29712454191008975	0.9550992659763601	1.7751488522646934	0.30177996735952406	0.7291941629582379	1.8289885582456882	0.36201667949414906	0.7790640208802319	1.819725574576204	0.27780275737367355	0.9942700307599042	1.8120862001699203	0.10595140567945206	0.6261229694579574	0.9599868943932932	0.10225405063552209	0.7602244828241761	1.366037253885382	0.11726438628008684	0.8962618451211918	1.763608468957226	0.15023982834830274	0.7060199274630402	1.8325466512602577	0.0782236356645132	0.7525105464866647	1.823898507849757	0.1417632800628646	0.9698882668418771	1.8182311413993493	0.22088008272941073	0.49925208896588635	0.4276966493678226	0.21747617146088932	0.4031211299962725	0.1885846070558213	0.1871500595666807	0.3509159643042163	0.34519562465458353	0.38855070213057186	0.5744566406895142	0.4999303471661775	0.41615027925449316	0.6285257420799202	0.7542361940824038	0.4278461697248729	0.5610922249793606	0.9994450381844711	0.37721455768573964	0.5661716874629474	1.1122847916009138	0.40192521173873635	0.5692791740305831	1.1202861053713649	0.42565943754483265	0.5961871693573855	1.1197125343780374	0.07356514806565641	0.5408346103602588	0.48434734463751195	0.01809697654185262	0.5089185348693626	0.7421996655179269	0.04688166136555051	0.44561694215068426	0.5929078993114143	0.035141267142712644	0.4158212908411081	0.5120418441783157	0.030017669431783175	0.39073411771466304	0.5065123595190071	0.015478473541471227	0.3423713739933432	0.5299273411585507
119	2.38	0.32363155986910797	0.6405966924152763	0.9512638016177085	0.3157779139854145	0.7837077237122775	1.374023995916776	0.29728579699708185	0.9544306906051482	1.7760621355168005	0.3020081627210786	0.7288327203339934	1.830256498015243	0.363431797042148	0.772844690720468	1.8177680437225137	0.2780210972475169	0.9939866382423191	1.8134738755279995	0.10597985227725035	0.625980791058844	0.9598603045551543	0.10226201996336831	0.7601701747743872	1.3657810976808278	0.11676641404913882	0.897205346061513	1.7634032617878688	0.1503997227867786	0.7064923789314486	1.830210065848029	0.07819728160606616	0.7523942961204112	1.8237895874036982	0.14152346059350393	0.969640460913332	1.81816996782326	0.22140383464985647	0.5024846402375924	0.42760117773456613	0.21745385513758547	0.4030594944798274	0.188681585224596	0.1902699120406776	0.35143723755114586	0.34558218525188583	0.3877578292098901	0.5708323307773231	0.5005117312203767	0.4141406300970831	0.6246687074381417	0.7554286759967609	0.4254909438389114	0.5615252044898035	1.000391913410963	0.3732882654107348	0.5583319385792225	1.1127591990510246	0.39784934652872356	0.5682911281974343	1.1207762549764657	0.4206323574576536	0.6006864178754332	1.1221475168645478	0.07274371091645226	0.5406692500527414	0.48504247209363777	0.02176529975877193	0.5022908659056615	0.743153613553906	0.0486416879870095	0.44189900377919056	0.592569247934251	0.03291608513511394	0.41675784036411123	0.5107896831645747	0.03093892800527684	0.38401493185681124	0.5066561837500072	0.018634197446873894	0.3425922052927389	0.5302410596331595
